<mxfile host="app.diagrams.net" modified="2023-11-28T23:57:59.773Z" agent="Mozilla/5.0 (Macintosh; Intel Mac OS X 10_15_7) AppleWebKit/537.36 (KHTML, like Gecko) Chrome/116.0.0.0 Safari/537.36" etag="q9Ke_8pmVrWWOSwSnlTm" version="22.1.4" type="device">
  <diagram name="Page-1" id="uA01S2bnCDYeRX9gCq1N">
    <mxGraphModel dx="1242" dy="790" grid="1" gridSize="10" guides="1" tooltips="1" connect="1" arrows="1" fold="1" page="1" pageScale="1" pageWidth="827" pageHeight="1169" math="0" shadow="0">
      <root>
        <mxCell id="0" />
        <mxCell id="1" parent="0" />
        <mxCell id="r_ddGIisWxu6nKgFk_Yj-1" value="&lt;font style=&quot;font-size: 17px;&quot;&gt;SQLite&lt;br&gt;database&lt;/font&gt;" style="shape=cylinder3;whiteSpace=wrap;html=1;boundedLbl=1;backgroundOutline=1;size=15;" vertex="1" parent="1">
          <mxGeometry x="345" y="465" width="110" height="120" as="geometry" />
        </mxCell>
        <mxCell id="r_ddGIisWxu6nKgFk_Yj-3" value="&lt;font style=&quot;font-size: 19px;&quot;&gt;Node JS &lt;br&gt;server&lt;/font&gt;" style="whiteSpace=wrap;html=1;aspect=fixed;" vertex="1" parent="1">
          <mxGeometry x="320" y="240" width="160" height="160" as="geometry" />
        </mxCell>
        <mxCell id="r_ddGIisWxu6nKgFk_Yj-4" style="edgeStyle=orthogonalEdgeStyle;rounded=0;orthogonalLoop=1;jettySize=auto;html=1;exitX=0.5;exitY=1;exitDx=0;exitDy=0;entryX=0.5;entryY=0;entryDx=0;entryDy=0;entryPerimeter=0;startArrow=block;startFill=1;" edge="1" parent="1" source="r_ddGIisWxu6nKgFk_Yj-3" target="r_ddGIisWxu6nKgFk_Yj-1">
          <mxGeometry relative="1" as="geometry" />
        </mxCell>
        <mxCell id="r_ddGIisWxu6nKgFk_Yj-5" value="" style="endArrow=classic;html=1;rounded=0;entryX=0;entryY=0.5;entryDx=0;entryDy=0;exitX=1;exitY=0.5;exitDx=0;exitDy=0;" edge="1" parent="1" source="r_ddGIisWxu6nKgFk_Yj-7" target="r_ddGIisWxu6nKgFk_Yj-3">
          <mxGeometry width="50" height="50" relative="1" as="geometry">
            <mxPoint x="240" y="320" as="sourcePoint" />
            <mxPoint x="440" y="370" as="targetPoint" />
          </mxGeometry>
        </mxCell>
        <mxCell id="r_ddGIisWxu6nKgFk_Yj-6" value="&amp;lt;device-ip&amp;gt;:3000/daq?..." style="text;html=1;align=center;verticalAlign=middle;resizable=0;points=[];autosize=1;strokeColor=none;fillColor=none;" vertex="1" parent="1">
          <mxGeometry x="160" y="280" width="160" height="30" as="geometry" />
        </mxCell>
        <mxCell id="r_ddGIisWxu6nKgFk_Yj-7" value="DAQ device" style="rounded=0;whiteSpace=wrap;html=1;" vertex="1" parent="1">
          <mxGeometry x="30" y="290" width="120" height="60" as="geometry" />
        </mxCell>
        <mxCell id="r_ddGIisWxu6nKgFk_Yj-8" value="" style="sketch=0;aspect=fixed;pointerEvents=1;shadow=0;dashed=0;html=1;strokeColor=none;labelPosition=center;verticalLabelPosition=bottom;verticalAlign=top;align=center;fillColor=#000000;shape=mxgraph.azure.computer" vertex="1" parent="1">
          <mxGeometry x="620" y="265" width="122.22" height="110" as="geometry" />
        </mxCell>
        <mxCell id="r_ddGIisWxu6nKgFk_Yj-9" style="edgeStyle=orthogonalEdgeStyle;rounded=0;orthogonalLoop=1;jettySize=auto;html=1;exitX=1;exitY=0.5;exitDx=0;exitDy=0;entryX=0;entryY=0.5;entryDx=0;entryDy=0;entryPerimeter=0;startArrow=classic;startFill=1;" edge="1" parent="1" source="r_ddGIisWxu6nKgFk_Yj-3" target="r_ddGIisWxu6nKgFk_Yj-8">
          <mxGeometry relative="1" as="geometry">
            <Array as="points">
              <mxPoint x="560" y="320" />
              <mxPoint x="560" y="320" />
            </Array>
          </mxGeometry>
        </mxCell>
        <mxCell id="r_ddGIisWxu6nKgFk_Yj-10" value="&amp;lt;device-ip&amp;gt;:3000" style="text;html=1;align=center;verticalAlign=middle;resizable=0;points=[];autosize=1;strokeColor=none;fillColor=none;" vertex="1" parent="1">
          <mxGeometry x="490" y="280" width="120" height="30" as="geometry" />
        </mxCell>
      </root>
    </mxGraphModel>
  </diagram>
</mxfile>
